<svg xmlns="http://www.w3.org/2000/svg" width="87" height="87.5" viewBox="0 0 87 87.5">
  <g id="CHAT__음성녹음_끝_표시버튼" data-name="CHAT_ 음성녹음 끝 표시버튼" transform="translate(-5193 -2222.5)">
    <circle id="타원_605" data-name="타원 605" cx="43.5" cy="43.5" r="43.5" transform="translate(5193 2223)" fill="#aeaeae"/>
    <rect id="사각형_2512" data-name="사각형 2512" width="28" height="28" rx="6" transform="translate(5223 2253)" fill="#eeecec"/>
    <path id="패스_2092" data-name="패스 2092" d="M2336.73,478.6A43.506,43.506,0,0,0,2252,492.5a44.041,44.041,0,0,0,.27,4.9,43.508,43.508,0,1,1,84.46-18.8Z" transform="translate(2943 1783)" fill="#040000" opacity="0.03"/>
    <path id="교차_3" data-name="교차 3" d="M.738-127.956C4.628-149.6,23.032-166,45.148-166c14.343,0,25.638,7.25,34.1,18.246.922,1.2,1.825,2.444,2.692,3.736A37.826,37.826,0,0,1,83.35-137.9c-6.293-10.4-16.5-23.531-36.391-23.531-24.94,0-44.9,17.923-44.9,36.89a26.5,26.5,0,0,0,.281,3.869A16.9,16.9,0,0,1,.738-127.956ZM83.35-137.9Z" transform="translate(5193 2389)" fill="#040000" stroke="rgba(0,0,0,0)" stroke-miterlimit="10" stroke-width="1" opacity="0.03"/>
  </g>
</svg>
