<svg xmlns="http://www.w3.org/2000/svg" width="30" height="30" viewBox="0 0 30 30">
  <g id="그룹_1626" data-name="그룹 1626" transform="translate(-152 -541)">
    <g id="패스_2652" data-name="패스 2652" transform="translate(152 541)" fill="#fff">
      <path d="M 15 29 C 11.26047039031982 29 7.744760036468506 27.54375076293945 5.100510120391846 24.89949035644531 C 2.456249952316284 22.25523948669434 1 18.73953056335449 1 15 C 1 11.26047039031982 2.456249952316284 7.744760036468506 5.100510120391846 5.100510120391846 C 7.744760036468506 2.456249952316284 11.26047039031982 1 15 1 C 18.73953056335449 1 22.25523948669434 2.456249952316284 24.89949035644531 5.100510120391846 C 27.54375076293945 7.744760036468506 29 11.26047039031982 29 15 C 29 18.73953056335449 27.54375076293945 22.25523948669434 24.89949035644531 24.89949035644531 C 22.25523948669434 27.54375076293945 18.73953056335449 29 15 29 Z" stroke="none"/>
      <path d="M 15 2 C 11.5275707244873 2 8.262990951538086 3.352239608764648 5.807609558105469 5.807609558105469 C 3.352239608764648 8.262990951538086 2 11.5275707244873 2 15 C 2 18.47243118286133 3.352239608764648 21.73701095581055 5.807609558105469 24.19239044189453 C 8.262990951538086 26.64776039123535 11.5275707244873 28 15 28 C 18.47243118286133 28 21.73701095581055 26.64776039123535 24.19239044189453 24.19239044189453 C 26.64776039123535 21.73701095581055 28 18.47243118286133 28 15 C 28 11.5275707244873 26.64776039123535 8.262990951538086 24.19239044189453 5.807609558105469 C 21.73701095581055 3.352239608764648 18.47243118286133 2 15 2 M 15 0 C 23.28426933288574 0 30 6.715730667114258 30 15 C 30 23.28426933288574 23.28426933288574 30 15 30 C 6.715730667114258 30 0 23.28426933288574 0 15 C 0 6.715730667114258 6.715730667114258 0 15 0 Z" stroke="none" fill="#c4c4c4"/>
    </g>
    <g id="Camera" transform="translate(159.949 548.314)">
      <rect id="사각형_252" data-name="사각형 252" width="14.101" height="14.101" transform="translate(0 0)" fill="none"/>
      <path id="패스_110" data-name="패스 110" d="M6.929,8.79A1.758,1.758,0,1,0,5.2,7.032,1.75,1.75,0,0,0,6.929,8.79Zm0-5.274a3.516,3.516,0,0,1,0,7.032,3.516,3.516,0,0,1,0-7.032Zm5.2,9.669H1.732A1.7,1.7,0,0,1,.52,12.658,1.748,1.748,0,0,1,0,11.427V3.516A1.75,1.75,0,0,1,1.732,1.758H3.118L4.417.439A1.424,1.424,0,0,1,5.456,0H8.488A1.382,1.382,0,0,1,9.44.439l1.3,1.318h1.386a1.75,1.75,0,0,1,1.732,1.758v7.911A1.75,1.75,0,0,1,12.125,13.185Z" transform="translate(0.148 0.512)" fill="#747474" fill-rule="evenodd"/>
    </g>
  </g>
</svg>
