<svg xmlns="http://www.w3.org/2000/svg" xmlns:xlink="http://www.w3.org/1999/xlink" width="414" height="149.299" viewBox="0 0 414 149.299">
  <defs>
    <linearGradient id="linear-gradient" x1="0.312" y1="0.193" x2="0.964" y2="1.256" gradientUnits="objectBoundingBox">
      <stop offset="0" stop-color="#fff"/>
      <stop offset="0" stop-color="#ffcfcb"/>
      <stop offset="0.381" stop-color="#f4c1b8"/>
      <stop offset="0.996" stop-color="#e5af9f"/>
    </linearGradient>
  </defs>
  <g id="그룹_2441" data-name="그룹 2441" transform="translate(0)">
    <rect id="사각형_3341" data-name="사각형 3341" width="414" height="149" transform="translate(0)" fill="#ceede8"/>
    <path id="패스_2812" data-name="패스 2812" d="M618.1,149.523H423L569.453,1H618.1Z" transform="translate(-204.098 -0.482)" fill="url(#linear-gradient)"/>
    <rect id="사각형_3342" data-name="사각형 3342" width="105" height="9" transform="translate(282 63)" fill="#afa197"/>
    <rect id="사각형_3343" data-name="사각형 3343" width="105.052" height="8.28" transform="translate(265.995 86.595)" fill="#afa197"/>
    <rect id="사각형_3344" data-name="사각형 3344" width="105.052" height="8.28" transform="translate(308.689 116.869)" fill="#afa197"/>
    <rect id="사각형_3345" data-name="사각형 3345" width="105.052" height="8.28" transform="translate(303.514 129.806)" fill="#afa197"/>
    <path id="패스_2813" data-name="패스 2813" d="M550.277,221.68v34.579H423.07l33.12-34.579Z" transform="translate(-204.131 -106.961)" fill="#a09c98" opacity="0.7"/>
    <path id="패스_2814" data-name="패스 2814" d="M515.008,131.721h-8.28a4.05,4.05,0,0,1-4.046-4.046v-8.28a4.05,4.05,0,0,1,4.046-4.046h8.28a4.05,4.05,0,0,1,4.046,4.046v8.28A4.05,4.05,0,0,1,515.008,131.721Zm-8.28-15.007a2.685,2.685,0,0,0-2.682,2.682v8.28a2.685,2.685,0,0,0,2.682,2.682h8.28a2.685,2.685,0,0,0,2.682-2.682v-8.28a2.685,2.685,0,0,0-2.682-2.682Z" transform="translate(-242.544 -55.656)" fill="#fff"/>
    <g id="트래블_어시스턴트가_반드시_알아야_할_글로챗에_대한_모든_것." data-name="트래블 어시스턴트가 반드시 알아야 할 글로챗에 대한 모든 것." transform="translate(28.157 23.574)" style="isolation: isolate">
      <text id="트래블_어시스턴트가" data-name="트래블 어시스턴트가" transform="translate(0 19)" fill="#376270" font-size="20" font-family="Pretendard-SemiBold, Pretendard" font-weight="600" style="isolation: isolate"><tspan x="0" y="0">트래블 어시스턴트</tspan><tspan y="0" fill="#3d84a0">가</tspan></text>
      <text id="반드시_알아야_할_" data-name="반드시 알아야 할 " transform="translate(0 47.941)" fill="#3d84a0" font-size="20" font-family="Pretendard-SemiBold, Pretendard" font-weight="600" style="isolation: isolate"><tspan x="0" y="0">반드시 알아야 할 </tspan></text>
      <text id="글로챗에_대한_모든_것" data-name="글로챗에 대한 모든 것" transform="translate(0 74.882)" fill="#376270" font-size="20" font-family="Pretendard-SemiBold, Pretendard" font-weight="600" style="isolation: isolate"><tspan x="0" y="0">글로챗</tspan><tspan y="0" fill="#3d84a0">에 대한 모든 것</tspan></text>
    </g>
    <path id="패스_2815" data-name="패스 2815" d="M568.164,182.475c-1.157-1.645-3-2.909-4.295-4.513a9.894,9.894,0,0,1-2.178-5.892c-.021-.73.04-1.465-.049-2.19a10.676,10.676,0,0,0-.661-2.339,8.093,8.093,0,0,0-.941-1.985,7.277,7.277,0,0,0-2.591-2,35.09,35.09,0,0,0-6.189-2.569,4.686,4.686,0,0,1-1.313-.544,4.549,4.549,0,0,1-.907-.933,62.479,62.479,0,0,0-5.41-5.891c-1.783-1.708-5.385-1.172-5.623,1.78a3.881,3.881,0,0,0,.391,1.742,28.36,28.36,0,0,0,6.123,9.259,11.711,11.711,0,0,0-1.451,14.316,16.346,16.346,0,0,0,4.116,4.074,12.746,12.746,0,0,0,5.067,2.424c1.9.347,3.881.014,5.753.475,2.6.641,4.928,2.784,7.576,2.366a4.693,4.693,0,0,0,3.483-5.726A5.927,5.927,0,0,0,568.164,182.475Z" transform="translate(-259.585 -73.656)" fill="#fff"/>
    <g id="그룹_2437" data-name="그룹 2437" transform="translate(301.89 45.497)">
      <path id="패스_2816" data-name="패스 2816" d="M644.351,130.526c-1.44-3.283-4.959-2.8-7.687-1.263-2.531-3.17-6.343-4.931-10.045-6.415a37.451,37.451,0,0,0-12.411-2.722,48.837,48.837,0,0,0-6.6-1.041c-3.851-.332-8.652-.544-10.821,3.366a6.375,6.375,0,0,0-.844,3.409c-1.237,3.353-1.245,7.42-1.1,10.737.2,4.579.729,9.811,4.173,13.2,4.949,4.873,12.552,6.562,19.5,5.756a19.12,19.12,0,0,1,3.685.415l3.583,7.421a1.907,1.907,0,0,0,2.983.385c2.45-3.14,5.861-6.426,7.443-10.116a14.3,14.3,0,0,0,.878-4.588,15.28,15.28,0,0,1,.208-1.565c.092-.15.189-.293.278-.446a1.82,1.82,0,0,0,.226-1.466,12.3,12.3,0,0,0,3.173-4.872C643.75,138.188,645.913,134.089,644.351,130.526Z" transform="translate(-588.87 -102.876)" fill="#fff"/>
      <path id="패스_2817" data-name="패스 2817" d="M614.62,154.683l-5.215,3.046a.825.825,0,1,0,.833,1.425l5.215-3.046a.825.825,0,1,0-.833-1.425Z" transform="translate(-595.73 -120.078)" fill="#333a39"/>
      <g id="그룹_2435" data-name="그룹 2435" transform="translate(11.026 31.414)">
        <path id="패스_2818" data-name="패스 2818" d="M607.2,148.641a1.393,1.393,0,0,0-1.147.452,5.484,5.484,0,0,0-1.383,3.5.988.988,0,0,0,.277.9,1.05,1.05,0,0,0,1.043.045,1.974,1.974,0,0,0,.74-.7,5.411,5.411,0,0,0,.994-3.128C607.722,149.066,607.517,148.724,607.2,148.641Z" transform="translate(-604.667 -148.62)" fill="#333a39"/>
        <path id="패스_2819" data-name="패스 2819" d="M637.37,154.453l.093-.046a3.95,3.95,0,0,0,2.149-2.9,1.472,1.472,0,0,0-.143-.984c-1-1.626-3.12,1.67-3.353,2.409a1.659,1.659,0,0,0-.056,1.028.911.911,0,0,0,.833.62A1.173,1.173,0,0,0,637.37,154.453Z" transform="translate(-619.785 -149.324)" fill="#333a39"/>
        <path id="패스_2820" data-name="패스 2820" d="M637.1,167.373a.833.833,0,0,0-.932-.379l-7.342,1.905a.824.824,0,0,0-.262,1.449.781.781,0,0,0,.109.358c1.076,1.779,3.4,1.639,5.169,1.237a4.905,4.905,0,0,0,2.782-1.477A2.889,2.889,0,0,0,637.1,167.373Z" transform="translate(-616.04 -157.474)" fill="#efafac"/>
      </g>
      <g id="그룹_2436" data-name="그룹 2436">
        <path id="패스_2821" data-name="패스 2821" d="M636.615,114.489c3.168-1,4.41-5.926,1.858-8.3l-13.09-12.167a5.324,5.324,0,0,0-5.008-1.094,14.93,14.93,0,0,0-8.34-4.026c-4.131-.641-9.686-.44-13.437,1.852a4.981,4.981,0,0,0-6.975-2.232,13.5,13.5,0,0,0-8.015,9.2,10.629,10.629,0,0,0,4.93,11.421,4.722,4.722,0,0,0,2.95.694,6.707,6.707,0,0,0,5.306.214,6.781,6.781,0,0,0,1.551-.838,4.463,4.463,0,0,0,4.01-2.66,19.953,19.953,0,0,0,8.743.1c.307.073.615.144.922.226a28.927,28.927,0,0,0,4.588.983,7.8,7.8,0,0,0,.62.587,25.775,25.775,0,0,0,3.408,2.419,23.7,23.7,0,0,0,4.671,2.054,51.769,51.769,0,0,1,.284,6.862c-.045,1.768,2.18,3.232,3.725,2.138A28.839,28.839,0,0,0,636.615,114.489Z" transform="translate(-583.362 -87.916)" fill="#ffcfcb"/>
        <path id="패스_2822" data-name="패스 2822" d="M680.165,160.944a21.912,21.912,0,0,0-4.831,3.486,2.476,2.476,0,0,0,3.5,3.5,16.457,16.457,0,0,1,3.828-2.712,2.476,2.476,0,0,0-2.5-4.276Z" transform="translate(-627.395 -123.001)" fill="#ffcfcb"/>
      </g>
    </g>
    <path id="패스_2823" data-name="패스 2823" d="M478.712,108.329c3.956,4.488,10.249,12.431,16.559,7.36,5.629-4.523,10.937-9.509,16.38-14.255,4.292-3.742-1.976-9.967-6.245-6.245l-8.3,7.235-3.773,3.289-2.263,1.974c-.309.269-1.871,1.284-1.333,1.144h2.348c-.937-.151-2.5-1.939-3.423-2.834-1.293-1.251-2.518-2.565-3.707-3.914-3.766-4.272-9.992,1.994-6.245,6.245Z" transform="translate(-230.42 -45.377)" fill="#51b7a6"/>
    <path id="패스_2824" data-name="패스 2824" d="M484.255,175.313h-8.539a4.062,4.062,0,0,1-4.058-4.058v-8.539a4.062,4.062,0,0,1,4.058-4.058h8.539a4.062,4.062,0,0,1,4.058,4.058v8.539A4.062,4.062,0,0,1,484.255,175.313Zm-8.539-15.266a2.673,2.673,0,0,0-2.67,2.67v8.539a2.673,2.673,0,0,0,2.67,2.67h8.539a2.673,2.673,0,0,0,2.67-2.67v-8.539a2.673,2.673,0,0,0-2.67-2.67Z" transform="translate(-227.575 -76.553)" fill="#fff"/>
    <circle id="타원_816" data-name="타원 816" cx="2.5" cy="2.5" r="2.5" transform="translate(91 49)" fill="#fff"/>
    <circle id="타원_817" data-name="타원 817" cx="2.5" cy="2.5" r="2.5" transform="translate(107 49)" fill="#fff"/>
    <circle id="타원_821" data-name="타원 821" cx="2.5" cy="2.5" r="2.5" transform="translate(148 76.065)" fill="#fff"/>
    <circle id="타원_818" data-name="타원 818" cx="2.5" cy="2.5" r="2.5" transform="translate(124 49)" fill="#fff"/>
    <circle id="타원_822" data-name="타원 822" cx="2.5" cy="2.5" r="2.5" transform="translate(165 76.065)" fill="#fff"/>
    <circle id="타원_819" data-name="타원 819" cx="2.5" cy="2.5" r="2.5" transform="translate(146.869 49)" fill="#fff"/>
    <circle id="타원_823" data-name="타원 823" cx="2.5" cy="2.5" r="2.5" transform="translate(187.869 76.065)" fill="#fff"/>
    <path id="패스_2825" data-name="패스 2825" d="M441.668,233.282c-1.86-.578-3.411-1.873-5.206-2.628s-4.188-.8-5.369.753a3.392,3.392,0,0,0-.09,3.719,4.738,4.738,0,0,0,3.217,2.085A13.931,13.931,0,0,1,426.844,241c-3.109.535-6.289-.005-9.442-.054a8.529,8.529,0,0,0-4.729.979,3.584,3.584,0,0,0-1.635,4.192c.784,1.815,3.154,2.183,5.129,2.265,5.492.226,11.1.188,16.467-1.126,4.619-1.13,11.021-3.576,12.846-8.462a3.934,3.934,0,0,0-1.036-4.542A9.5,9.5,0,0,0,441.668,233.282Z" transform="translate(-198.223 -111.045)" fill="#fff"/>
    <path id="패스_2826" data-name="패스 2826" d="M608.829,234.145c-.145-.59-.274-1.18-.378-1.77-1.139-6.665,1.475-13.439,1.061-20.188-.538-8.787-6.376-16.715-13.962-21.192-4.978-2.934-10.919-4.57-16.6-3.488s-9.248,9.589-14.107,15.147c-2.489-2.117-.869-7.364-3.938-6.257a69.638,69.638,0,0,0-16.084,8.632c-.233.16-.461.326-.688.492l-.476-.492c-1.051-1.082-2.106-2.168-3.152-3.25-2.427-2.5-5.128-4.74-8.094-2.246a53.174,53.174,0,0,0-5.4,5.5c-1.19,1.351-2.36,2.707-3.56,3.969a6.492,6.492,0,0,0-1.7,2.5c-.435,1.547.316,2.976,1.459,4.2q-3.175,1.048-6.35,2.091c-4.031,1.335-8.042,2.826-12.182,3.452q-7.079-1.9-14.154-3.809c-4.114-1.107-8.264-2.525-12.441-3.271a8.367,8.367,0,0,0-4.911.5,3.244,3.244,0,0,0-2.427,1.542c-.223.311-.435.626-.642.942-.005-.005-.005-.005-.01-.005l-.031.062c-.176.264-.342.528-.507.792a5.728,5.728,0,0,0-1.092,1.894c-.2.388-.393.781-.574,1.19a5.006,5.006,0,0,0-.186.476c-.31.507-.621,1.014-.926,1.527a4.382,4.382,0,0,0-.668,2.5,4.974,4.974,0,0,0,3.555,5.749c5.31,2.593,10.723,4.833,16.218,6.867,1.221.45,2.458.937,3.7,1.413H610A39.6,39.6,0,0,0,608.829,234.145ZM559.273,203.3c0,.047.005.093.005.135-.2.052-.409.1-.616.15C558.864,203.488,559.071,203.395,559.273,203.3Z" transform="translate(-224.844 -90.311)" fill="#626ab7"/>
    <rect id="사각형_3346" data-name="사각형 3346" width="95.516" height="20.27" rx="8.904" transform="translate(28.56 113.591)" fill="#afa197"/>
    <g id="그룹_2439" data-name="그룹 2439" transform="translate(37.621 116.696)">
      <g id="지금_확인하기" data-name="지금 확인하기" transform="translate(2 1.822)" style="isolation: isolate">
        <g id="그룹_2438" data-name="그룹 2438" style="isolation: isolate">
          <path id="패스_2827" data-name="패스 2827" d="M76.308,232.047a4.147,4.147,0,0,0,.329,1.6,4.615,4.615,0,0,0,.915,1.415,3.937,3.937,0,0,0,1.325.937l-.566.816a4.251,4.251,0,0,1-1.51-1.137,5.361,5.361,0,0,1-1-1.74,6.235,6.235,0,0,1-.6,1.3,5.334,5.334,0,0,1-.857,1.077,4.147,4.147,0,0,1-1.044.741l-.6-.816A3.941,3.941,0,0,0,74,235.232a5.23,5.23,0,0,0,.921-1.515,4.547,4.547,0,0,0,.338-1.67V231H73.039v-.853h5.493V231H76.308Zm3.451,6.87V229.17H80.8v9.747Z" transform="translate(-72.697 -229.093)" fill="#fff"/>
          <path id="패스_2828" data-name="패스 2828" d="M100.043,233.687v.842h-8.92v-.842h6.5a10.135,10.135,0,0,0,.217-1.379q.048-.613.049-1.34H92.238v-.838h6.674v.738q0,.519-.013.9t-.067.875a10.185,10.185,0,0,1-.173,1.041Zm-1.119,5.57H92.208v-3.489h6.716ZM97.9,236.579H93.219v1.839H97.9Z" transform="translate(-81.588 -229.556)" fill="#fff"/>
          <path id="패스_2829" data-name="패스 2829" d="M120.612,235.026q-.97.169-2.027.254t-1.994.108q-.936.023-2.094.027l-.115-.827q1.481,0,2.55-.027V233.9a3.168,3.168,0,0,1-.967-.248,1.547,1.547,0,0,1-.629-.489,1.125,1.125,0,0,1-.215-.69,1.107,1.107,0,0,1,.283-.767,1.822,1.822,0,0,1,.812-.5,4.465,4.465,0,0,1,2.441,0,1.818,1.818,0,0,1,.812.5,1.145,1.145,0,0,1,.292.77,1.161,1.161,0,0,1-.223.687,1.576,1.576,0,0,1-.621.491,3.04,3.04,0,0,1-.952.25v.623q1.489-.077,2.569-.231Zm-2.65-5.093h2.293v.773h-5.624v-.773h2.3v-.912h1.031Zm3.123,7H115.6v-.816h6.519v2.723h-1.031Zm-4.822-4.068a1.034,1.034,0,0,0,.462.263,2.89,2.89,0,0,0,1.419,0,1.045,1.045,0,0,0,.464-.263.563.563,0,0,0,.161-.4.6.6,0,0,0-.356-.544,2.658,2.658,0,0,0-1.958,0,.591.591,0,0,0-.352.544A.568.568,0,0,0,116.264,232.87Zm5.852-.871H123.5v.858h-1.388v2.812h-1.031v-6.562h1.031Z" transform="translate(-92.81 -229.021)" fill="#fff"/>
          <path id="패스_2830" data-name="패스 2830" d="M134.542,234.374a2.318,2.318,0,0,1-1.273-2.116,2.316,2.316,0,0,1,.34-1.243,2.35,2.35,0,0,1,.935-.86,2.967,2.967,0,0,1,2.641,0,2.372,2.372,0,0,1,0,4.218,2.993,2.993,0,0,1-2.642,0Zm-.06-1.32a1.408,1.408,0,0,0,.567.537,1.729,1.729,0,0,0,.816.19,1.7,1.7,0,0,0,.806-.19,1.417,1.417,0,0,0,.565-.537,1.527,1.527,0,0,0,.206-.8,1.506,1.506,0,0,0-.206-.787,1.418,1.418,0,0,0-.567-.535,1.7,1.7,0,0,0-.8-.19,1.725,1.725,0,0,0-.814.19,1.414,1.414,0,0,0-.569.535,1.475,1.475,0,0,0-.2.787A1.5,1.5,0,0,0,134.483,233.054Zm1.336,2.5v2.327h5.624v.846h-6.662v-3.173Zm4.3-6.366h1.035v7.085h-1.035Z" transform="translate(-101.923 -229.1)" fill="#fff"/>
          <path id="패스_2831" data-name="패스 2831" d="M153.564,229.3h1.031v1.4h2.339v.842H151.16V230.7h2.4Zm1.764,3.252a2.17,2.17,0,0,1,.865.807,2.348,2.348,0,0,1,0,2.345,2.165,2.165,0,0,1-.865.8,2.636,2.636,0,0,1-1.24.289,2.665,2.665,0,0,1-1.25-.289,2.149,2.149,0,0,1-.865-.8,2.362,2.362,0,0,1,0-2.347,2.159,2.159,0,0,1,.865-.805,2.647,2.647,0,0,1,1.25-.291A2.619,2.619,0,0,1,155.327,232.549Zm-.508,3.207a1.29,1.29,0,0,0,.511-.494,1.452,1.452,0,0,0,.19-.734,1.467,1.467,0,0,0-.19-.735,1.317,1.317,0,0,0-.511-.5,1.49,1.49,0,0,0-.733-.179,1.529,1.529,0,0,0-.744.179,1.293,1.293,0,0,0-.514.5,1.584,1.584,0,0,0,0,1.469,1.267,1.267,0,0,0,.514.494,1.557,1.557,0,0,0,.744.175A1.517,1.517,0,0,0,154.82,235.757Zm3.987-2.637h1.561v.858h-1.561v4.939h-1.024V229.17h1.024Z" transform="translate(-110.555 -229.093)" fill="#fff"/>
          <path id="패스_2832" data-name="패스 2832" d="M174.928,230.22a7.564,7.564,0,0,1-1.086,4.019,7.945,7.945,0,0,1-3.48,2.9l-.546-.835a7.736,7.736,0,0,0,2.91-2.222,5.77,5.77,0,0,0,1.148-3.04h-3.585v-.823Zm1.858,8.7V229.17h1.039v9.747Z" transform="translate(-119.557 -229.093)" fill="#fff"/>
        </g>
      </g>
      <g id="그룹_1907" data-name="그룹 1907" transform="translate(63.407)" opacity="0.56">
        <g id="타원_727" data-name="타원 727">
          <circle id="타원_820" data-name="타원 820" cx="6.734" cy="6.734" r="6.734" fill="none"/>
          <path id="패스_2833" data-name="패스 2833" d="M201.957,238.968a6.734,6.734,0,1,1,6.734-6.734A6.741,6.741,0,0,1,201.957,238.968Zm0-12.55a5.816,5.816,0,1,0,5.816,5.816A5.822,5.822,0,0,0,201.957,226.418Z" transform="translate(-195.223 -225.5)" fill="#fff"/>
        </g>
        <rect id="사각형_3347" data-name="사각형 3347" width="7.958" height="0.918" transform="translate(2.433 6.534)" fill="#fff"/>
        <path id="패스_2834" data-name="패스 2834" d="M207.226,239.273l-.628-.67,3.607-3.38-3.6-3.292.619-.678,4.336,3.962Z" transform="translate(-200.711 -228.276)" fill="#fff"/>
      </g>
    </g>
    <path id="패스_2835" data-name="패스 2835" d="M567.1,174.984c.066.08.133.16.2.241l.1.122c.076.095.032.032-.018-.025.136.155.252.333.372.5q.373.523.709,1.072a18.171,18.171,0,0,1,1.163,2.247,1.032,1.032,0,0,0,.618.476,1.035,1.035,0,0,0,1.273-.723,1.209,1.209,0,0,0-.1-.8,18.973,18.973,0,0,0-2.843-4.576,1.04,1.04,0,0,0-1.464,0,1.063,1.063,0,0,0,0,1.464Z" transform="translate(-273.487 -83.578)" fill="#ffcfcb"/>
    <g id="그룹_2440" data-name="그룹 2440" transform="translate(305.121 46.024)">
      <path id="패스_2836" data-name="패스 2836" d="M614.275,92.575a9.545,9.545,0,0,1,3.569-1.394,20.147,20.147,0,0,1,7.77-.387,15.292,15.292,0,0,1,1.854.382,5.48,5.48,0,0,1,.886.319c.125.06.247.127.366.2.182.111.242.283.18.033l.212-.8-.057.061.584-.242-.085,0,.713.409-.035-.06a.826.826,0,0,0-1.425.833l.035.06a.827.827,0,0,0,.713.409.939.939,0,0,0,.759-1.515,4.1,4.1,0,0,0-2-1.173,17.428,17.428,0,0,0-5.144-.769,21.821,21.821,0,0,0-5.307.541,11.752,11.752,0,0,0-4.75,1.927c-.831.661.344,1.823,1.167,1.167Z" transform="translate(-600.809 -88.935)" fill="#fce4e3"/>
      <path id="패스_2837" data-name="패스 2837" d="M686.309,160.254c.052.087.1.178.144.268.071.136-.025-.1,0,0,.013.048.036.1.052.142.032.1.06.193.082.29.009.039.018.079.025.119s.072.22.009.02a1.833,1.833,0,0,1,.022.575c0,.051-.005.1-.009.152,0,.027-.022.2-.006.072s-.011.061-.013.071c-.009.05-.02.1-.031.149a1.726,1.726,0,0,1-.172.552c.1-.145.024-.054,0,0s-.044.091-.067.136q-.07.134-.152.262c-.033.052-.218.283-.082.128-.067.076-.129.154-.2.227s-.131.125-.2.186-.081.064,0,0c-.05.036-.1.071-.15.105a.825.825,0,1,0,.833,1.425,4.357,4.357,0,0,0,1.337-5.712.825.825,0,0,0-1.425.833Z" transform="translate(-635.707 -122.746)" fill="#fce4e3"/>
      <path id="패스_2838" data-name="패스 2838" d="M678.518,165.63c-.014.114-.006-.012.007-.052a1.087,1.087,0,0,0-.023.138q-.022.124-.05.247c-.036.155-.078.308-.127.46-.026.08-.054.159-.083.238-.013.035-.027.07-.04.1-.068.175.054-.115.007-.016-.073.152-.143.3-.226.451s-.161.274-.25.405c-.047.069-.1.137-.146.2-.065.091.1-.119.026-.034-.03.035-.059.072-.089.108q-.154.182-.323.35-.09.089-.184.173c-.035.031-.072.06-.106.092s-.028.024.018-.012a.432.432,0,0,1,.134-.078h.439l-.049-.015.364.212-.017-.021.242.583-.089.341-.3.3.021-.013-.417.112h.02l-.584-.242.016.018a.83.83,0,0,0,1.167,0,.845.845,0,0,0,0-1.167.876.876,0,0,0-1.462.409.889.889,0,0,0,.4.98.972.972,0,0,0,.934.006,2.883,2.883,0,0,0,.677-.567,6.989,6.989,0,0,0,.585-.7,6.232,6.232,0,0,0,1.156-3.013.822.822,0,0,0-.242-.583.825.825,0,0,0-1.167,0,.961.961,0,0,0-.242.583Z" transform="translate(-631.48 -125.542)" fill="#fce4e3"/>
      <path id="패스_2839" data-name="패스 2839" d="M598.34,91.089a5.189,5.189,0,0,0-5.292.786,12.53,12.53,0,0,0-3.343,4.771.848.848,0,0,0,.3,1.129.832.832,0,0,0,1.129-.3,12.522,12.522,0,0,1,2.655-4.088,3.664,3.664,0,0,1,3.722-.877.851.851,0,0,0,1.129-.3.832.832,0,0,0-.3-1.129Z" transform="translate(-589.606 -89.775)" fill="#fce4e3"/>
      <path id="패스_2840" data-name="패스 2840" d="M600.217,99.617a3.044,3.044,0,0,0-.73,3.984c.765,1.414,2.418,2.035,3.875,2.448a.825.825,0,1,0,.439-1.591c-.3-.085-.6-.174-.894-.278-.147-.052-.294-.106-.438-.167.149.063-.08-.038-.088-.042q-.1-.049-.208-.1c-.137-.07-.27-.146-.4-.229-.065-.041-.127-.084-.19-.127-.2-.137.109.1-.074-.056a3.874,3.874,0,0,1-.332-.314c-.052-.056-.1-.115-.151-.174.129.155,0-.007-.018-.037a3.027,3.027,0,0,1-.181-.334c.06.126.017.039-.01-.04-.021-.061-.039-.122-.055-.183s-.027-.125-.042-.187c-.042-.169,0,.157-.006-.032a3.4,3.4,0,0,1-.008-.376c0-.054.038-.24,0-.026.011-.06.022-.12.037-.18s.028-.1.042-.145c.009-.028.019-.057.03-.085-.042.1-.05.115-.024.06s.055-.108.085-.157c.017-.027.138-.169.055-.086s.059-.053.076-.072c.135-.154-.083.047.048-.045a.825.825,0,1,0-.833-1.425Z" transform="translate(-594.167 -94.031)" fill="#fce4e3"/>
      <path id="패스_2841" data-name="패스 2841" d="M608.762,106.427a25.422,25.422,0,0,0,5.063,1.721.826.826,0,0,0,.438-1.592,24.45,24.45,0,0,1-2.434-.674,21.726,21.726,0,0,1-2.235-.881.845.845,0,0,0-1.129.3.835.835,0,0,0,.3,1.129Z" transform="translate(-598.657 -96.64)" fill="#fce4e3"/>
    </g>
    <path id="패스_2842" data-name="패스 2842" d="M582.826,247.109q3.429,4.852,7.152,9.486c2.073,2.582,4.3,5.18,7.258,6.665a20.76,20.76,0,0,0,6.7,1.77,66.123,66.123,0,0,0,49.225-13.806" transform="translate(-281.214 -119.23)" fill="none" stroke="#6582db" stroke-miterlimit="10" stroke-width="1"/>
    <path id="패스_2843" data-name="패스 2843" d="M617.331,222.289a21.525,21.525,0,0,1,3.073,2.01c3.422,2.847,5.086,7.8,9.208,9.477" transform="translate(-297.862 -107.254)" fill="none" stroke="#6582db" stroke-miterlimit="10" stroke-width="1"/>
    <path id="패스_2844" data-name="패스 2844" d="M638.489,227.054a24.556,24.556,0,0,0,10.743-3.893,33.872,33.872,0,0,0,4.1-3.644l7.052-6.993" transform="translate(-308.071 -102.542)" fill="none" stroke="#6582db" stroke-miterlimit="10" stroke-width="1"/>
    <path id="패스_2845" data-name="패스 2845" d="M602.415,276.055l-1.825,3.875" transform="translate(-289.785 -133.197)" fill="none" stroke="#6582db" stroke-miterlimit="10" stroke-width="1"/>
  </g>
</svg>
