<svg id="그룹_2384" data-name="그룹 2384" xmlns="http://www.w3.org/2000/svg" width="20" height="18" viewBox="0 0 20 18">
  <path id="패스_2806" data-name="패스 2806" d="M15.442,15.75a.6.6,0,0,1,.613.575v2.3a.6.6,0,0,1-.613.575H12.988a.576.576,0,1,1,0-1.15h1.84V16.325A.6.6,0,0,1,15.442,15.75Z" transform="translate(-5.47 -7.916)" fill="#fff" fill-rule="evenodd"/>
  <path id="패스_2807" data-name="패스 2807" d="M16.875,20.825a.6.6,0,0,1,.613-.575h2.453a.576.576,0,1,1,0,1.15H18.1v1.726a.615.615,0,0,1-1.227,0Z" transform="translate(-7.46 -10.178)" fill="#fff" fill-rule="evenodd"/>
  <path id="패스_2808" data-name="패스 2808" d="M1.25,5.62V16.853A1.192,1.192,0,0,0,2.5,17.976h15a1.192,1.192,0,0,0,1.25-1.123V5.62ZM2.5,2.25A2.383,2.383,0,0,0,0,4.5V16.853A2.383,2.383,0,0,0,2.5,19.1h15A2.383,2.383,0,0,0,20,16.853V4.5A2.383,2.383,0,0,0,17.5,2.25Z" transform="translate(0 -1.099)" fill="#fff" fill-rule="evenodd"/>
  <path id="패스_2809" data-name="패스 2809" d="M7.382,0a.606.606,0,0,1,.632.575V1.15a.635.635,0,0,1-1.264,0V.575A.606.606,0,0,1,7.382,0ZM18.758,0a.606.606,0,0,1,.632.575V1.15a.635.635,0,0,1-1.264,0V.575A.606.606,0,0,1,18.758,0Z" transform="translate(-3.07 0)" fill="#fff" fill-rule="evenodd"/>
</svg>
