<svg xmlns="http://www.w3.org/2000/svg" width="28.525" height="24.975" viewBox="0 0 28.525 24.975">
  <g id="그룹_2438" data-name="그룹 2438" transform="translate(-72.076 -822.507)">
    <g id="패스_2809" data-name="패스 2809" transform="translate(-20.473 112.824)" fill="none" stroke-miterlimit="10">
      <path d="M96.384,722.376a9.855,9.855,0,0,1,10.094-9.6,10.367,10.367,0,0,1,6.51,2.262,9.4,9.4,0,0,1,3.584,7.335c0,2.727-7.647,10.291-9.625,12.2a.287.287,0,0,1-.48-.229c-.016-.639-.034-1.572-.019-2.057a.3.3,0,0,0-.283-.322A9.837,9.837,0,0,1,96.384,722.376Z" stroke="none"/>
      <path d="M 106.4776611328125 714.5780029296875 C 101.9045257568359 714.5780029296875 98.18400573730469 718.0760498046875 98.18400573730469 722.3756713867188 C 98.18400573730469 724.3990478515625 99.00534057617188 726.317138671875 100.496711730957 727.7767333984375 C 102.0088119506836 729.2565307617188 104.0400924682617 730.1063842773438 106.2119522094727 730.1696166992188 C 106.7684326171875 730.1844482421875 107.2860946655273 730.416015625 107.669563293457 730.8217163085938 C 107.7518768310547 730.9088134765625 107.8259506225586 731.0016479492188 107.8914260864258 731.099365234375 C 108.8578643798828 730.1110229492188 109.9788665771484 728.927490234375 111.040901184082 727.7183227539062 C 114.5501861572266 723.722900390625 114.760871887207 722.4620971679688 114.7721862792969 722.3645629882812 C 114.7686920166016 720.085205078125 113.707893371582 717.9275512695312 111.8605651855469 716.4434814453125 C 110.3630752563477 715.2405395507812 108.4513931274414 714.5780029296875 106.4776611328125 714.5780029296875 M 106.4776611328125 712.7780151367188 C 108.9585266113281 712.7780151367188 111.2302703857422 713.6282958984375 112.9878616333008 715.0402221679688 C 115.1801147460938 716.8013305664062 116.5721969604492 719.433349609375 116.5721969604492 722.3756713867188 C 116.5721969604492 725.102783203125 108.9256973266602 732.6663208007812 106.9468765258789 734.5777587890625 C 106.762825012207 734.7557983398438 106.4724807739258 734.6166381835938 106.4664306640625 734.3487548828125 C 106.4508743286133 733.710205078125 106.432731628418 732.7769165039062 106.4474105834961 732.291259765625 C 106.4526062011719 732.1158447265625 106.3264465332031 731.9733276367188 106.1639938354492 731.968994140625 C 100.7339248657227 731.8109130859375 96.38400268554688 727.575927734375 96.38400268554688 722.3756713867188 C 96.38400268554688 717.0743408203125 100.9032974243164 712.7780151367188 106.4776611328125 712.7780151367188 Z" stroke="none" fill="#c3c6d6"/>
    </g>
    <g id="패스_1885" data-name="패스 1885" transform="translate(-19.87 111.912)" fill="#c6c6c6" stroke-linejoin="round">
      <path d="M 94.03334045410156 725.34228515625 C 93.37765502929688 724.8656616210938 92.94599914550781 724.060791015625 92.94599914550781 723.1500244140625 C 92.94599914550781 722.1802978515625 93.4326171875 721.3302612304688 94.15739440917969 720.86669921875 C 93.92851257324219 721.6688232421875 93.81053924560547 722.50146484375 93.81053924560547 723.3367309570312 C 93.81053924560547 724.0220947265625 93.88514709472656 724.6920776367188 94.03334045410156 725.34228515625 Z" stroke="none"/>
      <path d="M 95.41868591308594 726.7979125976562 C 93.50425720214844 726.7979125976562 91.94599914550781 725.1676025390625 91.94599914550781 723.1500244140625 C 91.94600677490234 721.00537109375 93.70629119873047 719.2913208007812 95.78265380859375 719.513916015625 C 95.16653442382812 720.6493530273438 94.81053924560547 721.9498291015625 94.81053924560547 723.3367309570312 C 94.81053924560547 724.5801391601562 95.09135437011719 725.7510375976562 95.59772491455078 726.7931518554688 C 95.53781127929688 726.7963256835938 95.47795867919922 726.7979125976562 95.41868591308594 726.7979125976562 Z" stroke="none" fill="#c3c6d6"/>
    </g>
    <g id="패스_1886" data-name="패스 1886" transform="translate(-23.423 112.011)" fill="#c6c6c6" stroke-linejoin="round">
      <path d="M 120.0469131469727 727.0098266601562 C 120.2637405395508 726.715576171875 120.4721984863281 726.4111938476562 120.6659774780273 726.0927734375 C 121.165412902832 725.2687377929688 121.5007019042969 724.4469604492188 121.6634368896484 723.6487426757812 C 121.8539505004883 722.7125244140625 121.692512512207 721.790283203125 121.5500793457031 720.9766235351562 L 121.529670715332 720.8598022460938 C 121.489143371582 720.6265258789062 121.4407501220703 720.399169921875 121.384895324707 720.1793823242188 C 121.6488494873047 720.3421020507812 121.8949966430664 720.5451049804688 122.0965270996094 720.7747802734375 C 122.6942825317383 721.4556274414062 123.0233764648438 722.40869140625 123.0233764648438 723.45849609375 C 123.0233764648438 725.2320556640625 121.7363586425781 726.7107543945312 120.0469131469727 727.0098266601562 Z" stroke="none"/>
      <path d="M 119.4159622192383 728.0650634765625 C 118.9648818969727 728.0650634765625 118.5164108276367 728.00634765625 118.0930023193359 727.8472900390625 C 118.7039260864258 727.1180419921875 119.3174362182617 726.3851928710938 119.8117065429688 725.5729370117188 C 120.2091979980469 724.9171142578125 120.5297927856445 724.203369140625 120.6836013793945 723.448974609375 C 120.8443222045898 722.6591796875 120.6809997558594 721.8158569335938 120.5444717407227 721.0311889648438 C 120.4770660400391 720.6432495117188 120.3837585449219 720.2595825195312 120.2558670043945 719.8871459960938 C 120.1374816894531 719.54150390625 119.6457977294922 718.807861328125 119.7892456054688 718.7810668945312 C 120.9074478149414 718.642333984375 122.130973815918 719.2978515625 122.8481903076172 720.115234375 C 123.6500930786133 721.0286254882812 124.0233764648438 722.2556762695312 124.0233764648438 723.45849609375 C 124.0233764648438 726.0006713867188 121.9659423828125 728.0650634765625 119.4159622192383 728.0650634765625 Z" stroke="none" fill="#c3c6d6"/>
    </g>
    <path id="패스_1888" data-name="패스 1888" d="M95.726,716.767c1.616-5.531,13.992-11.1,21.218-.462" transform="translate(-20.384 113.165)" fill="none" stroke="#c3c6d6" stroke-linecap="round" stroke-linejoin="round" stroke-width="1.8"/>
  </g>
</svg>
