<svg id="calendar-check" xmlns="http://www.w3.org/2000/svg" width="25.076" height="25.076" viewBox="0 0 25.076 25.076">
  <path id="패스_2739" data-name="패스 2739" d="M20.765,15.978a.784.784,0,0,1,0,1.11l-4.7,4.7a.784.784,0,0,1-1.11,0L12.6,19.438a.785.785,0,0,1,1.11-1.11l1.8,1.8,4.147-4.149a.784.784,0,0,1,1.11,0Z" transform="translate(-3.754 -4.778)" fill="#c6c6c6" fill-rule="evenodd"/>
  <path id="패스_2740" data-name="패스 2740" d="M1.567,6.952V22.624a1.567,1.567,0,0,0,1.567,1.567H21.942a1.567,1.567,0,0,0,1.567-1.567V6.952Zm1.567-4.7A3.135,3.135,0,0,0,0,5.385v17.24a3.135,3.135,0,0,0,3.135,3.135H21.942a3.135,3.135,0,0,0,3.135-3.135V5.385A3.135,3.135,0,0,0,21.942,2.25Z" transform="translate(0 -0.683)" fill="#c6c6c6" fill-rule="evenodd"/>
  <path id="패스_2741" data-name="패스 2741" d="M7.534,0a.784.784,0,0,1,.784.784v.784a.784.784,0,1,1-1.567,0V.784A.784.784,0,0,1,7.534,0ZM21.639,0a.784.784,0,0,1,.784.784v.784a.784.784,0,0,1-1.567,0V.784A.784.784,0,0,1,21.639,0Z" transform="translate(-2.048)" fill="#c6c6c6" fill-rule="evenodd"/>
</svg>
