<svg xmlns="http://www.w3.org/2000/svg" width="25.151" height="23.774" viewBox="0 0 25.151 23.774">
  <g id="_ver2_MY_PAGE_아이콘_선_" data-name="(ver2) MY PAGE 아이콘 선 " transform="translate(675.462 -1049)">
    <g id="패스_1869" data-name="패스 1869" transform="translate(-847.884 298.77)" fill="none" stroke-linejoin="round">
      <path d="M196.412,774h-22.83a1.106,1.106,0,0,1-1.16-1.043v-1.352c0-4.611,4.157-8.349,9.284-8.349h6.582c5.128,0,9.285,3.738,9.285,8.349v1.352A1.107,1.107,0,0,1,196.412,774Z" stroke="none"/>
      <path d="M 195.572998046875 772.0039672851562 L 195.572998046875 771.6090698242188 C 195.572998046875 768.108154296875 192.3049621582031 765.2599487304688 188.2879943847656 765.2599487304688 L 181.7059936523438 765.2599487304688 C 177.6895904541016 765.2599487304688 174.4219970703125 768.108154296875 174.4219970703125 771.6090698242188 L 174.4219970703125 772.0039672851562 L 195.572998046875 772.0039672851562 M 196.4120025634766 774.0039672851562 L 173.5820007324219 774.0039672851562 C 172.9409942626953 774.0039672851562 172.4219970703125 773.53662109375 172.4219970703125 772.9605712890625 L 172.4219970703125 771.6090698242188 C 172.4219970703125 766.9982299804688 176.5789947509766 763.2599487304688 181.7059936523438 763.2599487304688 L 188.2879943847656 763.2599487304688 C 193.4160003662109 763.2599487304688 197.572998046875 766.9982299804688 197.572998046875 771.6090698242188 L 197.572998046875 772.9605712890625 C 197.572998046875 773.53662109375 197.0529937744141 774.0039672851562 196.4120025634766 774.0039672851562 Z" stroke="none" fill="#7777fb"/>
    </g>
    <g id="타원_481" data-name="타원 481" transform="translate(-668.906 1049)" fill="none" stroke="#7777fb" stroke-linejoin="round" stroke-width="2">
      <circle cx="6.019" cy="6.019" r="6.019" stroke="none"/>
      <circle cx="6.019" cy="6.019" r="5.019" fill="none"/>
    </g>
  </g>
</svg>
