<svg xmlns="http://www.w3.org/2000/svg" xmlns:xlink="http://www.w3.org/1999/xlink" width="45" height="45" viewBox="0 0 45 45">
  <defs>
    <linearGradient id="linear-gradient" x1="0.218" y1="0.154" x2="0.81" y2="0.845" gradientUnits="objectBoundingBox">
      <stop offset="0" stop-color="#439dd9"/>
      <stop offset="1" stop-color="#77f"/>
    </linearGradient>
  </defs>
  <g id="그룹_1626" data-name="그룹 1626" transform="translate(-145 -534)">
    <path id="패스_2652" data-name="패스 2652" d="M22.5,0A22.5,22.5,0,1,1,0,22.5,22.5,22.5,0,0,1,22.5,0Z" transform="translate(145 534)" fill="url(#linear-gradient)"/>
    <g id="Camera" transform="translate(157.504 545.504)">
      <rect id="사각형_252" data-name="사각형 252" width="19.992" height="19.992" fill="none"/>
      <path id="패스_110" data-name="패스 110" d="M9.823,12.462A2.493,2.493,0,1,0,7.368,9.97,2.482,2.482,0,0,0,9.823,12.462Zm0-7.477a4.986,4.986,0,0,1,0,9.97,4.986,4.986,0,0,1,0-9.97Zm7.368,13.709H2.456a2.407,2.407,0,0,1-1.719-.748A2.479,2.479,0,0,1,0,16.2V4.985A2.482,2.482,0,0,1,2.456,2.492H4.421L6.262.623A2.019,2.019,0,0,1,7.736,0h4.3a1.959,1.959,0,0,1,1.351.623l1.842,1.869h1.965a2.482,2.482,0,0,1,2.456,2.492V16.2A2.482,2.482,0,0,1,17.191,18.694Z" transform="translate(0.209 0.726)" fill="#fff" fill-rule="evenodd"/>
    </g>
  </g>
</svg>
