<svg xmlns="http://www.w3.org/2000/svg" width="23.75" height="18" viewBox="0 0 23.75 18">
  <g id="그룹_2452" data-name="그룹 2452" transform="translate(-358 -60)">
    <g id="타원_824" data-name="타원 824" transform="translate(362 60)" fill="#fff" stroke="#000" stroke-width="2">
      <circle cx="4.5" cy="4.5" r="4.5" stroke="none"/>
      <circle cx="4.5" cy="4.5" r="3.5" fill="none"/>
    </g>
    <g id="사각형_3352" data-name="사각형 3352" transform="translate(358 70)" fill="#fff" stroke="#000" stroke-width="2">
      <path d="M4,0h9a4,4,0,0,1,4,4V7a1,1,0,0,1-1,1H1A1,1,0,0,1,0,7V4A4,4,0,0,1,4,0Z" stroke="none"/>
      <path d="M4,1h9a3,3,0,0,1,3,3V7a0,0,0,0,1,0,0H1A0,0,0,0,1,1,7V4A3,3,0,0,1,4,1Z" fill="none"/>
    </g>
    <line id="선_327" data-name="선 327" x2="7" transform="translate(374 61.5)" fill="none" stroke="#000" stroke-linecap="round" stroke-width="1.5"/>
    <line id="선_328" data-name="선 328" x2="7" transform="translate(374 66.5)" fill="none" stroke="#000" stroke-linecap="round" stroke-width="1.5"/>
    <line id="선_329" data-name="선 329" x2="4" transform="translate(377 71.5)" fill="none" stroke="#000" stroke-linecap="round" stroke-width="1.5"/>
    <line id="선_330" data-name="선 330" x2="3.5" transform="translate(377.5 76.5)" fill="none" stroke="#000" stroke-linecap="round" stroke-width="1.5"/>
  </g>
</svg>
