<svg xmlns="http://www.w3.org/2000/svg" width="19.3" height="19.3" viewBox="0 0 19.3 19.3">
  <g id="MY_Setting_버튼_아이콘" data-name="MY_Setting 버튼 아이콘" transform="translate(0.65 0.65)">
    <g id="그룹_1347" data-name="그룹 1347" transform="translate(0 0)">
      <path id="패스_2005" data-name="패스 2005" d="M703.972,121.311h-.995a6.781,6.781,0,0,0-.351-.841l.705-.705a1.532,1.532,0,0,0,0-2.16l-.936-.936a1.532,1.532,0,0,0-2.161,0l-.705.705a6.759,6.759,0,0,0-.841-.351v-.995a1.532,1.532,0,0,0-1.528-1.528h-1.322a1.532,1.532,0,0,0-1.528,1.528v.995a6.767,6.767,0,0,0-.841.351l-.705-.705a1.532,1.532,0,0,0-2.16,0l-.936.936a1.533,1.533,0,0,0,0,2.16l.705.705a6.771,6.771,0,0,0-.351.841h-.995a1.532,1.532,0,0,0-1.528,1.528v1.322a1.532,1.532,0,0,0,1.528,1.528h.995a6.771,6.771,0,0,0,.351.841l-.705.705a1.533,1.533,0,0,0,0,2.16l.936.936a1.532,1.532,0,0,0,2.16,0l.705-.705a6.765,6.765,0,0,0,.841.351v.995a1.532,1.532,0,0,0,1.528,1.528h1.322a1.532,1.532,0,0,0,1.528-1.528v-.995a6.756,6.756,0,0,0,.841-.351l.705.705a1.533,1.533,0,0,0,2.161,0l.936-.936a1.532,1.532,0,0,0,0-2.16l-.705-.705a6.781,6.781,0,0,0,.351-.841h.995a1.532,1.532,0,0,0,1.528-1.528v-1.322A1.532,1.532,0,0,0,703.972,121.311Z" transform="translate(-687.5 -114.5)" fill="none" stroke="#000" stroke-miterlimit="10" stroke-width="1.3"/>
      <circle id="타원_554" data-name="타원 554" cx="3.656" cy="3.656" r="3.656" transform="translate(5.344 5.344)" fill="none" stroke="#000" stroke-miterlimit="10" stroke-width="1.3"/>
    </g>
  </g>
</svg>
